<svg width="33" height="32" viewBox="0 0 33 32" fill="none" xmlns="http://www.w3.org/2000/svg">
<path fill-rule="evenodd" clip-rule="evenodd" d="M0.285767 16C0.285767 7.16347 7.44923 0 16.2858 0C25.1223 0 32.2858 7.16347 32.2858 16C32.2858 24.8365 25.1223 32 16.2858 32C7.44923 32 0.285767 24.8365 0.285767 16ZM13.0858 25.6C14.8531 25.6 16.2858 24.1673 16.2858 22.4V19.2H13.0858C11.3185 19.2 9.88577 20.6327 9.88577 22.4C9.88577 24.1673 11.3185 25.6 13.0858 25.6ZM9.88577 16C9.88577 17.7673 11.3185 19.2 13.0858 19.2H16.2858V12.8H13.0858C11.3185 12.8 9.88577 14.2327 9.88577 16ZM9.88577 9.6C9.88577 11.3673 11.3185 12.8 13.0858 12.8H16.2858V6.4H13.0858C11.3185 6.4 9.88577 7.83269 9.88577 9.6ZM16.2858 6.4V12.8H19.4858C21.2531 12.8 22.6858 11.3673 22.6858 9.6C22.6858 7.83269 21.2531 6.4 19.4858 6.4H16.2858ZM22.6858 16C22.6858 14.2327 21.2531 12.8 19.4858 12.8C17.7185 12.8 16.2858 14.2327 16.2858 16C16.2858 17.7673 17.7185 19.2 19.4858 19.2C21.2531 19.2 22.6858 17.7673 22.6858 16Z" fill="#B8B8B8"/>
</svg>
