<svg width="33" height="32" viewBox="0 0 33 32" fill="none" xmlns="http://www.w3.org/2000/svg">
<path fill-rule="evenodd" clip-rule="evenodd" d="M16.6003 0.119965C7.78125 0.119965 0.629913 7.3919 0.629913 16.363C0.629913 23.5397 5.20591 29.6284 11.5514 31.7762C12.3496 31.9266 12.6426 31.4239 12.6426 30.9948C12.6426 30.6075 12.6278 29.3279 12.6209 27.9707C8.17795 28.9533 7.24043 26.0542 7.24043 26.0542C6.51395 24.1767 5.4672 23.6774 5.4672 23.6774C4.01821 22.6693 5.57643 22.69 5.57643 22.69C7.18013 22.8043 8.02456 24.3639 8.02456 24.3639C9.44895 26.8471 11.7606 26.1292 12.672 25.7142C12.8153 24.6646 13.2292 23.9475 13.6859 23.5421C10.1387 23.1314 6.40975 21.7386 6.40975 15.5146C6.40975 13.7412 7.03362 12.2922 8.05524 11.1547C7.88942 10.7453 7.34277 9.09348 8.20995 6.85609C8.20995 6.85609 9.55104 6.41953 12.6029 8.52109C13.8769 8.16119 15.2431 7.9807 16.6003 7.97452C17.9575 7.9807 19.3248 8.16119 20.6011 8.52109C23.6493 6.41953 24.9885 6.85609 24.9885 6.85609C25.8578 9.09348 25.3109 10.7453 25.1451 11.1547C26.1691 12.2922 26.7887 13.7412 26.7887 15.5146C26.7887 21.7534 23.0527 23.1271 19.4964 23.5292C20.0693 24.0333 20.5797 25.0218 20.5797 26.5373C20.5797 28.7104 20.5612 30.4596 20.5612 30.9948C20.5612 31.4271 20.8486 31.9336 21.6581 31.7741C28.0002 29.6238 32.5704 23.5373 32.5704 16.363C32.5704 7.3919 25.4201 0.119965 16.6003 0.119965Z" fill="#B8B8B8"/>
<path fill-rule="evenodd" clip-rule="evenodd" d="M6.67871 23.4415C6.64353 23.5225 6.51871 23.5464 6.40499 23.491C6.28915 23.438 6.2241 23.328 6.26165 23.2471C6.29603 23.1639 6.42112 23.1411 6.53669 23.1962C6.65279 23.2495 6.7189 23.3606 6.67871 23.4415Z" fill="#B8B8B8"/>
<path fill-rule="evenodd" clip-rule="evenodd" d="M7.32558 24.1753C7.24942 24.2471 7.10053 24.2138 6.9995 24.1003C6.89504 23.987 6.87547 23.8356 6.95269 23.7627C7.03124 23.6909 7.17563 23.7245 7.28036 23.8377C7.38482 23.9523 7.40519 24.1027 7.32558 24.1753Z" fill="#B8B8B8"/>
<path fill-rule="evenodd" clip-rule="evenodd" d="M7.95527 25.1108C7.85742 25.18 7.69742 25.1151 7.59851 24.9707C7.50066 24.8263 7.50066 24.653 7.60062 24.5836C7.6998 24.5142 7.85742 24.5766 7.95765 24.72C8.05524 24.8666 8.05524 25.0401 7.95527 25.1108Z" fill="#B8B8B8"/>
<path fill-rule="evenodd" clip-rule="evenodd" d="M8.81795 26.0146C8.73041 26.1128 8.54396 26.0864 8.4075 25.9525C8.26786 25.8215 8.22899 25.6356 8.31679 25.5374C8.40539 25.439 8.59289 25.4667 8.73041 25.5996C8.86899 25.7303 8.9113 25.9175 8.81795 26.0146Z" fill="#B8B8B8"/>
<path fill-rule="evenodd" clip-rule="evenodd" d="M10.008 26.5394C9.96942 26.6666 9.78985 26.7245 9.60896 26.6704C9.42833 26.6147 9.31011 26.4657 9.34661 26.3371C9.38416 26.2091 9.56452 26.1488 9.74674 26.2067C9.9271 26.2621 10.0456 26.41 10.008 26.5394Z" fill="#B8B8B8"/>
<path fill-rule="evenodd" clip-rule="evenodd" d="M11.315 26.6368C11.3195 26.7707 11.1661 26.8818 10.9762 26.884C10.7853 26.8885 10.6308 26.7801 10.6287 26.6483C10.6287 26.513 10.7787 26.403 10.9696 26.3998C11.1595 26.396 11.315 26.5036 11.315 26.6368Z" fill="#B8B8B8"/>
<path fill-rule="evenodd" clip-rule="evenodd" d="M12.5313 26.4262C12.554 26.5569 12.422 26.6911 12.2335 26.7266C12.0481 26.7613 11.8765 26.6806 11.8529 26.551C11.8299 26.417 11.9643 26.2828 12.1494 26.2481C12.3382 26.2147 12.5072 26.2933 12.5313 26.4262Z" fill="#B8B8B8"/>
</svg>
