<svg width="33" height="32" viewBox="0 0 33 32" fill="none" xmlns="http://www.w3.org/2000/svg">
<path d="M3.039 28.0058H8.12991V15.6422L0.857178 10.1877V25.824C0.857178 27.0295 1.83354 28.0058 3.039 28.0058Z" fill="#B8B8B8"/>
<path d="M25.5844 28.0059H30.6754C31.8808 28.0059 32.8572 27.0295 32.8572 25.824V10.1877L25.5844 15.6422V28.0059Z" fill="#B8B8B8"/>
<path d="M25.5844 6.1877V15.6422L32.8572 10.1877V7.27861C32.8572 4.58224 29.779 3.04224 27.6208 4.66042L25.5844 6.1877Z" fill="#B8B8B8"/>
<path fill-rule="evenodd" clip-rule="evenodd" d="M8.12991 15.6422V6.18768L16.8572 12.7331L25.5844 6.1877V15.6422L16.8572 22.1877L8.12991 15.6422Z" fill="#B8B8B8"/>
<path d="M0.857178 7.27861V10.1877L8.12991 15.6422V6.18768L6.09354 4.66042C3.93536 3.04224 0.857178 4.58224 0.857178 7.27861Z" fill="#B8B8B8"/>
</svg>
