<svg width="33" height="32" viewBox="0 0 33 32" fill="none" xmlns="http://www.w3.org/2000/svg">
<path d="M16.1441 0C11.7987 0 11.2533 0.0190003 9.54665 0.096667C7.8433 0.174667 6.68062 0.444334 5.66327 0.84C4.61093 1.24867 3.71825 1.79533 2.82891 2.685C1.9389 3.57433 1.39223 4.467 0.982225 5.519C0.585554 6.53667 0.315552 7.69967 0.238884 9.40233C0.162884 11.109 0.142883 11.6547 0.142883 16C0.142883 20.3453 0.162217 20.889 0.239551 22.5957C0.317885 24.299 0.587555 25.4617 0.982892 26.479C1.3919 27.5313 1.93857 28.424 2.82824 29.3133C3.71725 30.2033 4.60993 30.7513 5.66161 31.16C6.67962 31.5557 7.84263 31.8253 9.54565 31.9033C11.2523 31.981 11.7973 32 16.1424 32C20.4881 32 21.0318 31.981 22.7385 31.9033C24.4418 31.8253 25.6058 31.5557 26.6238 31.16C27.6758 30.7513 28.5672 30.2033 29.4562 29.3133C30.3462 28.424 30.8929 27.5313 31.3029 26.4793C31.6962 25.4617 31.9662 24.2987 32.0462 22.596C32.1229 20.8893 32.1429 20.3453 32.1429 16C32.1429 11.6547 32.1229 11.1093 32.0462 9.40267C31.9662 7.69933 31.6962 6.53667 31.3029 5.51933C30.8929 4.467 30.3462 3.57433 29.4562 2.685C28.5662 1.795 27.6762 1.24833 26.6228 0.84C25.6028 0.444334 24.4395 0.174667 22.7361 0.096667C21.0294 0.0190003 20.4861 0 16.1394 0H16.1441ZM14.7087 2.88333C15.1347 2.88267 15.61 2.88333 16.1441 2.88333C20.4161 2.88333 20.9224 2.89867 22.6095 2.97533C24.1695 3.04667 25.0161 3.30733 25.5802 3.52633C26.3268 3.81633 26.8592 4.163 27.4188 4.723C27.9788 5.283 28.3255 5.81633 28.6162 6.563C28.8352 7.12633 29.0962 7.973 29.1672 9.533C29.2439 11.2197 29.2605 11.7263 29.2605 15.9963C29.2605 20.2663 29.2439 20.773 29.1672 22.4597C29.0959 24.0197 28.8352 24.8663 28.6162 25.4297C28.3262 26.1763 27.9788 26.708 27.4188 27.2677C26.8588 27.8277 26.3272 28.1743 25.5802 28.4643C25.0168 28.6843 24.1695 28.9443 22.6095 29.0157C20.9228 29.0923 20.4161 29.109 16.1441 29.109C11.8717 29.109 11.3653 29.0923 9.67865 29.0157C8.11863 28.9437 7.27196 28.683 6.70762 28.464C5.96094 28.174 5.42761 27.8273 4.8676 27.2673C4.30759 26.7073 3.96092 26.1753 3.67025 25.4283C3.45125 24.865 3.19025 24.0183 3.11925 22.4583C3.04258 20.7717 3.02725 20.265 3.02725 15.9923C3.02725 11.7197 3.04258 11.2157 3.11925 9.529C3.19058 7.969 3.45125 7.12233 3.67025 6.55833C3.96026 5.81167 4.30759 5.27833 4.8676 4.71833C5.42761 4.15833 5.96094 3.81167 6.70762 3.521C7.27163 3.301 8.11863 3.041 9.67865 2.96933C11.1547 2.90267 11.7267 2.88267 14.7087 2.87933V2.88333Z" fill="#B8B8B8"/>
<path d="M24.6504 5.5007C24.2706 5.5007 23.8994 5.61332 23.5836 5.82432C23.2679 6.03532 23.0218 6.33523 22.8765 6.6861C22.7312 7.03697 22.6932 7.42305 22.7673 7.79552C22.8415 8.16798 23.0244 8.51009 23.293 8.77858C23.5616 9.04707 23.9037 9.22988 24.2762 9.30389C24.6487 9.3779 25.0348 9.33978 25.3856 9.19436C25.7364 9.04893 26.0363 8.80274 26.2472 8.48691C26.4581 8.17108 26.5706 7.7998 26.5704 7.42003C26.5704 6.36003 25.7104 5.5007 24.6504 5.5007Z" fill="#B8B8B8"/>
<path fill-rule="evenodd" clip-rule="evenodd" d="M16.1096 7.74403C11.5719 7.74403 7.89289 11.423 7.89289 15.9607C7.89289 20.4984 11.5719 24.1757 16.1096 24.1757C20.6474 24.1757 24.3254 20.4984 24.3254 15.9607C24.3254 11.423 20.6474 7.74403 16.1096 7.74403ZM16.1429 21.25C19.0424 21.25 21.3929 18.8995 21.3929 16C21.3929 13.1005 19.0424 10.75 16.1429 10.75C13.2434 10.75 10.8929 13.1005 10.8929 16C10.8929 18.8995 13.2434 21.25 16.1429 21.25Z" fill="#B8B8B8"/>
</svg>
