<svg width="33" height="32" viewBox="0 0 33 32" fill="none" xmlns="http://www.w3.org/2000/svg">
<path fill-rule="evenodd" clip-rule="evenodd" d="M6.03891 0C3.09821 0 0.714294 2.38782 0.714294 5.33333V26.6667C0.714294 29.6122 3.09821 32 6.03891 32H26.723C29.6637 32 32.0476 29.6122 32.0476 26.6667V5.33333C32.0476 2.38781 29.6637 0 26.723 0H6.03891ZM5.01459 7.1584C5.01459 8.76735 6.23245 9.94313 7.73473 9.94313C9.23722 9.94313 10.4551 8.76735 10.4551 7.1584C10.4551 5.54969 9.23722 4.37256 7.73473 4.37256C6.23245 4.37256 5.01459 5.54969 5.01459 7.1584ZM22.7702 27.5017H27.4884V17.9701C27.4884 13.2627 24.6434 11.6572 22.0106 11.6572C19.5762 11.6572 17.9225 13.2769 17.4659 14.2256V12.0903H12.9283V27.5017H17.6465V19.1461C17.6465 16.9183 19.0189 15.8348 20.419 15.8348C21.7432 15.8348 22.7702 16.6007 22.7702 19.0843V27.5017ZM10.0937 12.0785V27.4898H5.37572V12.0785H10.0937Z" fill="#B8B8B8"/>
</svg>
