<svg width="32" height="32" viewBox="0 0 32 32" fill="none" xmlns="http://www.w3.org/2000/svg">
<path fill-rule="evenodd" clip-rule="evenodd" d="M15.9737 31.6554C7.1504 31.6554 0.000366211 24.6137 0.000366211 15.9299C0.000366211 7.24615 7.1504 0.206146 15.9737 0.206146C24.7954 0.206146 31.9471 7.24615 31.9471 15.9299C31.9471 24.6137 24.7954 31.6554 15.9737 31.6554ZM1.47828 15.9301C1.47828 21.9663 5.29368 27.1234 10.678 29.2C10.5514 28.0733 10.4385 26.3436 10.7294 25.1107C10.9911 23.9992 12.4266 18.0286 12.4266 18.0286C12.4266 18.0286 11.9937 17.1747 11.9937 15.9133C11.9937 13.9309 13.1589 12.4522 14.6132 12.4522C15.8468 12.4522 16.4439 13.3651 16.4439 14.4598C16.4439 15.6825 15.6535 17.5099 15.2445 19.2042C14.9041 20.624 15.9683 21.7794 17.3883 21.7794C19.9616 21.7794 21.9395 19.1082 21.9395 15.2531C21.9395 11.8408 19.45 9.456 15.893 9.456C11.7747 9.456 9.35718 12.4977 9.35718 15.6404C9.35718 16.8648 9.83453 18.1785 10.4334 18.8926C10.5514 19.0341 10.5685 19.1571 10.5343 19.3019C10.4248 19.7516 10.1801 20.72 10.1322 20.9171C10.0689 21.1781 9.92179 21.2337 9.64633 21.1091C7.83957 20.2804 6.71035 17.6766 6.71035 15.5882C6.71035 11.0931 10.0279 6.96337 16.2745 6.96337C21.2961 6.96337 25.1988 10.4867 25.1988 15.1941C25.1988 20.1053 22.0524 24.0581 17.6878 24.0581C16.2198 24.0581 14.8408 23.3069 14.3685 22.4211C14.3685 22.4211 13.6431 25.1411 13.4669 25.808C13.1401 27.0459 12.2572 28.5971 11.6687 29.5436C13.022 29.9579 14.4609 30.1802 15.9546 30.1802C23.9498 30.1802 30.4309 23.8004 30.4309 15.9301C30.4309 8.0581 23.9498 1.68 15.9546 1.68C7.95934 1.68 1.47828 8.0581 1.47828 15.9301Z" fill="#B8B8B8"/>
</svg>
