<svg width="33" height="32" viewBox="0 0 33 32" fill="none" xmlns="http://www.w3.org/2000/svg">
<path fill-rule="evenodd" clip-rule="evenodd" d="M0.428589 16C0.428589 7.16344 7.59203 0 16.4286 0C25.2651 0 32.4286 7.16344 32.4286 16C32.4286 24.8366 25.2651 32 16.4286 32C7.59203 32 0.428589 24.8366 0.428589 16ZM15.9494 13.005L15.983 13.5586L15.4234 13.4908C13.3865 13.231 11.607 12.3497 10.0961 10.8695L9.3575 10.1351L9.16724 10.6775C8.76434 11.8864 9.02175 13.1632 9.86112 14.0219C10.3088 14.4964 10.2081 14.5642 9.43584 14.2818C9.16724 14.1914 8.93221 14.1236 8.90983 14.1575C8.83149 14.2366 9.10009 15.2647 9.31273 15.6715C9.60371 16.2364 10.1969 16.7901 10.846 17.1177L11.3944 17.3776L10.7453 17.3889C10.1185 17.3889 10.0961 17.4002 10.1633 17.6375C10.3871 18.3719 11.2713 19.1515 12.2561 19.4905L12.95 19.7277L12.3457 20.0893C11.4503 20.609 10.3983 20.9028 9.34631 20.9254C8.84268 20.9367 8.42859 20.9819 8.42859 21.0158C8.42859 21.1288 9.79397 21.7615 10.5886 22.0101C12.9724 22.7445 15.8039 22.4281 17.9303 21.174C19.4412 20.2814 20.9521 18.5075 21.6571 16.7901C22.0377 15.8749 22.4182 14.2027 22.4182 13.4005C22.4182 12.8807 22.4517 12.8129 23.0785 12.1915C23.4478 11.8299 23.7947 11.4345 23.8619 11.3215C23.9738 11.1068 23.9626 11.1068 23.3919 11.2989C22.4406 11.6379 22.3063 11.5927 22.7763 11.0842C23.1232 10.7227 23.5373 10.0673 23.5373 9.87526C23.5373 9.84137 23.3695 9.89786 23.1792 9.99955C22.9778 10.1125 22.5301 10.282 22.1943 10.3837L21.59 10.5758L21.0416 10.2029C20.7394 9.99955 20.3141 9.77357 20.0903 9.70578C19.5195 9.5476 18.6466 9.5702 18.1318 9.75098C16.7328 10.2594 15.8487 11.5701 15.9494 13.005Z" fill="#B8B8B8"/>
</svg>
